<mxfile host="app.diagrams.net" modified="2021-02-22T10:14:57.801Z" agent="5.0 (Windows NT 10.0; Win64; x64) AppleWebKit/537.36 (KHTML, like Gecko) Chrome/88.0.4324.182 Safari/537.36" etag="pmreoUlpLxEHSHlnRhxx" version="14.4.2" type="github">
  <diagram id="PVcaHne8yzz4F-yD3c_g" name="Page-1">
    <mxGraphModel dx="1422" dy="705" grid="1" gridSize="10" guides="1" tooltips="1" connect="1" arrows="1" fold="1" page="1" pageScale="1" pageWidth="827" pageHeight="1169" math="0" shadow="0">
      <root>
        <mxCell id="0" />
        <mxCell id="1" parent="0" />
        <mxCell id="mJFapvTvCSVmzPKkbr4O-3" style="edgeStyle=orthogonalEdgeStyle;rounded=0;orthogonalLoop=1;jettySize=auto;html=1;exitX=0.5;exitY=1;exitDx=0;exitDy=0;entryX=0.5;entryY=0;entryDx=0;entryDy=0;" edge="1" parent="1" source="mJFapvTvCSVmzPKkbr4O-1" target="mJFapvTvCSVmzPKkbr4O-2">
          <mxGeometry relative="1" as="geometry" />
        </mxCell>
        <mxCell id="mJFapvTvCSVmzPKkbr4O-1" value="Start" style="rounded=1;whiteSpace=wrap;html=1;" vertex="1" parent="1">
          <mxGeometry x="120" y="30" width="60" height="30" as="geometry" />
        </mxCell>
        <mxCell id="mJFapvTvCSVmzPKkbr4O-6" value="yes" style="edgeStyle=orthogonalEdgeStyle;rounded=0;orthogonalLoop=1;jettySize=auto;html=1;exitX=0.5;exitY=1;exitDx=0;exitDy=0;entryX=0.5;entryY=0;entryDx=0;entryDy=0;" edge="1" parent="1" source="mJFapvTvCSVmzPKkbr4O-2" target="mJFapvTvCSVmzPKkbr4O-4">
          <mxGeometry relative="1" as="geometry" />
        </mxCell>
        <mxCell id="mJFapvTvCSVmzPKkbr4O-7" value="no" style="edgeStyle=orthogonalEdgeStyle;rounded=0;orthogonalLoop=1;jettySize=auto;html=1;exitX=1;exitY=0.5;exitDx=0;exitDy=0;entryX=1;entryY=0.5;entryDx=0;entryDy=0;" edge="1" parent="1" source="mJFapvTvCSVmzPKkbr4O-2" target="mJFapvTvCSVmzPKkbr4O-5">
          <mxGeometry relative="1" as="geometry">
            <Array as="points">
              <mxPoint x="230" y="140" />
              <mxPoint x="230" y="355" />
            </Array>
          </mxGeometry>
        </mxCell>
        <mxCell id="mJFapvTvCSVmzPKkbr4O-2" value="IF" style="rhombus;whiteSpace=wrap;html=1;" vertex="1" parent="1">
          <mxGeometry x="110" y="100" width="80" height="80" as="geometry" />
        </mxCell>
        <mxCell id="mJFapvTvCSVmzPKkbr4O-8" style="edgeStyle=orthogonalEdgeStyle;rounded=0;orthogonalLoop=1;jettySize=auto;html=1;exitX=0.5;exitY=1;exitDx=0;exitDy=0;entryX=0.5;entryY=0;entryDx=0;entryDy=0;" edge="1" parent="1" source="mJFapvTvCSVmzPKkbr4O-4" target="mJFapvTvCSVmzPKkbr4O-5">
          <mxGeometry relative="1" as="geometry" />
        </mxCell>
        <mxCell id="mJFapvTvCSVmzPKkbr4O-4" value="DO IT" style="rounded=0;whiteSpace=wrap;html=1;" vertex="1" parent="1">
          <mxGeometry x="90" y="220" width="120" height="60" as="geometry" />
        </mxCell>
        <mxCell id="mJFapvTvCSVmzPKkbr4O-5" value="END" style="rounded=1;whiteSpace=wrap;html=1;" vertex="1" parent="1">
          <mxGeometry x="120" y="340" width="60" height="30" as="geometry" />
        </mxCell>
        <mxCell id="mJFapvTvCSVmzPKkbr4O-10" value="&lt;pre class=&quot;plaintext code-block code-block_theme_light&quot; style=&quot;position: relative ; display: block ; overflow-x: auto ; box-sizing: inherit ; border: 1px solid rgb(223 , 229 , 238) ; border-radius: 4px ; color: rgb(56 , 58 , 66) ; background: rgb(247 , 249 , 252) ; margin: 0 ; font-size: 18px ; font-style: normal ; font-weight: 400 ; letter-spacing: normal ; text-indent: 0px ; text-transform: none ; word-spacing: 0px&quot;&gt;&lt;code class=&quot;code-block__code plaintext&quot; style=&quot;word-break: break-word ; font-size: 14px ; line-height: 24px ; box-sizing: inherit ; background: none ; padding: 0px&quot;&gt;let mode = prompt(&#39;Выбери режим:&#39;);&lt;br&gt;let transportTypeView = false;&lt;br&gt;if (mode == &quot;Свой&quot;) { &lt;br&gt;    transportTypeView = true; &lt;br&gt;};&lt;br&gt;console.log(transportTypeView); &lt;/code&gt;&lt;/pre&gt;" style="text;whiteSpace=wrap;html=1;" vertex="1" parent="1">
          <mxGeometry x="360" y="34" width="270" height="190" as="geometry" />
        </mxCell>
      </root>
    </mxGraphModel>
  </diagram>
</mxfile>
